<svg width="141" height="32" viewBox="0 0 141 32" fill="none" xmlns="http://www.w3.org/2000/svg"><path fill-rule="evenodd" clip-rule="evenodd" d="M26.415 25.4391C27.9958 24.5286 28.9696 22.846 28.9696 21.0249V10.9763C28.9696 9.15531 27.9958 7.47266 26.415 6.56217L17.6922 1.53785C16.1113 0.627356 14.1639 0.627358 12.5831 1.53785L3.86019 6.56217C2.27944 7.47266 1.30566 9.15531 1.30566 10.9763V21.0249C1.30566 22.846 2.27945 24.5286 3.86019 25.4391L12.5831 30.4634C14.1639 31.3738 16.1115 31.3738 17.6922 30.4634L26.415 25.4391Z" fill="#8C4CDE"/><path d="M48.4947 9.01147C48.8196 9.01147 49.0829 9.27182 49.0829 9.59299V11.2683C49.0829 11.588 48.8218 11.8477 48.4984 11.8498L44.5815 11.8744C43.0045 11.8744 42.6604 12.1295 42.6604 14.0571V22.603C42.6604 22.9242 42.3971 23.1846 42.0723 23.1846H39.8081C39.4832 23.1846 39.2198 22.9242 39.2198 22.603V12.7815C39.2198 10.2304 40.3667 9.01147 43.0332 9.01147H48.4947Z" fill="#8C4CDE"/></svg>
