<svg width="122" height="18" viewBox="0 0 122 18" fill="none" xmlns="http://www.w3.org/2000/svg"><path d="M28.6014 3.04867L23.6525 0.250378C23.0672 -0.0819529 22.3657 -0.0837206 21.7768 0.246842C21.188 0.575638 20.8372 1.16605 20.8372 1.82541V7.84272L18.2637 6.40026C16.1954 5.24064 13.6273 5.24418 11.5609 6.40734L9.00734 7.84626V1.82718C9.00734 1.16782 8.65657 0.577405 8.06771 0.24861C7.48067 -0.0801852 6.77913 -0.0784175 6.19209 0.252146L1.24314 3.04867C0.476175 3.48176 0 4.28608 0 5.14695V11.7936C0 12.939 0.592493 13.9908 1.58664 14.606L6.09213 17.4008C6.72279 17.7932 7.45886 18 8.21675 18C9.07459 18 9.92153 17.726 10.6013 17.2275L13.7327 14.9277C14.3761 14.454 15.463 14.454 16.1063 14.9277L19.2378 17.2258C20.5482 18.1874 22.3602 18.2581 23.747 17.399L28.2579 14.6007C29.2321 13.9961 29.8209 12.9726 29.8427 11.8501V5.14872C29.8445 4.28608 29.3684 3.48176 28.6014 3.05044V3.04867ZM8.17494 16.7803C7.67332 16.7732 7.19351 16.6353 6.78277 16.3826L2.26092 13.5772C1.63208 13.1865 1.25587 12.5201 1.25587 11.7936V5.14872C1.25587 4.71917 1.49214 4.31966 1.8738 4.10577L6.82275 1.30924C6.91544 1.25621 7.02267 1.22793 7.13354 1.22793C7.2444 1.22793 7.34255 1.25621 7.44069 1.30924C7.53338 1.3605 7.74966 1.51606 7.74966 1.83072V15.6207C7.74966 16.0485 7.89869 16.4533 8.17313 16.7803H8.17494ZM10.0524 16.1015L10.0324 16.1139C9.91971 16.1987 9.79067 16.2411 9.65254 16.2411C9.34175 16.2411 9.00734 16.0025 9.00734 15.6171V13.5825L12.904 11.1607C14.1344 10.3953 15.7229 10.3953 16.9533 11.1607L20.8463 13.5825L20.8499 15.6154C20.8499 16.0007 20.5155 16.2394 20.2047 16.2394C20.0702 16.2394 19.9139 16.1881 19.7994 16.1033L16.866 13.9502C15.7756 13.1494 14.069 13.1494 12.9785 13.9502L10.0524 16.1015ZM17.6294 10.1319C15.9882 9.11194 13.8672 9.11194 12.2261 10.1319L9.00552 12.133V9.25866L12.1879 7.4662L12.2006 7.45736C13.8763 6.5187 15.9573 6.5187 17.6367 7.45736L20.8372 9.25159L20.8427 12.1312L17.6294 10.1319ZM27.4201 13.6727L23.0727 16.3702C22.6583 16.6283 22.1803 16.7679 21.6823 16.7785C21.9549 16.4515 22.104 16.0467 22.104 15.6189L22.0913 8.90158V1.82718C22.0913 1.51606 22.3075 1.35874 22.4002 1.3057C22.4965 1.25091 22.6038 1.22439 22.7092 1.22439C22.8146 1.22439 22.9218 1.25091 23.0182 1.3057L27.9671 4.104C28.347 4.31966 28.5832 4.71917 28.5832 5.14695V11.8112C28.576 12.5272 28.1997 13.1848 27.5782 13.5701L27.4164 13.6709H27.4219L27.4201 13.6727Z" fill="url(#wv_grad)"/><defs><linearGradient id="wv_grad" x1="5.60525" y1="0" x2="17.1502" y2="22.6179" gradientUnits="userSpaceOnUse"><stop stop-color="#75FBAE"/><stop offset="1" stop-color="#B6F874"/></linearGradient></defs></svg>
