<svg width="53" height="40" viewBox="0 0 53 40" fill="none" xmlns="http://www.w3.org/2000/svg"><mask id="chroma_mask" style="mask-type:luminance" maskUnits="userSpaceOnUse" x="0" y="2" width="53" height="36"><path d="M52.503 2.501H.003v35h52.5v-35z" fill="#fff"/></mask><g mask="url(#chroma_mask)"><path d="M17.503 2.501c-9.665 0-17.5 7.835-17.5 17.5s7.835 17.5 17.5 17.5 17.5-7.835 17.5-17.5-7.835-17.5-17.5-17.5z" fill="#327EFF"/><path d="M35.003 2.501c-9.665 0-17.5 7.835-17.5 17.5s7.835 17.5 17.5 17.5 17.5-7.834 17.5-17.5c0-9.665-7.835-17.5-17.5-17.5z" fill="#FFDE2D"/><path d="M17.503 20.002c0-9.665 7.835-17.5 17.5-17.5v17.5h-17.5z" fill="#FF6446"/><path d="M35.003 20.001c0 9.665-7.835 17.5-17.5 17.5v-17.5h17.5z" fill="#FF6446"/></g></svg>
