<svg width="126" height="31" viewBox="0 0 126 31" fill="none" xmlns="http://www.w3.org/2000/svg"><path d="M17.5189 3.76461C17.5717 3.50294 17.9411 3.50294 17.994 3.76461L18.9176 8.33812C18.9371 8.43444 19.0114 8.50971 19.1066 8.5294L23.6256 9.46419C23.8841 9.51767 23.8841 9.89154 23.6256 9.94503L19.1066 10.8798C19.0114 10.8995 18.9371 10.9748 18.9176 11.0711L17.994 15.6446C17.9411 15.9063 17.5717 15.9063 17.5189 15.6446L16.5952 11.0711C16.5758 10.9748 16.5014 10.8995 16.4062 10.8798L11.8873 9.94503C11.6287 9.89154 11.6287 9.51767 11.8873 9.46419L16.4062 8.5294C16.5014 8.50971 16.5758 8.43444 16.5952 8.33812L17.5189 3.76461Z" fill="#8C4CDE"/><path d="M23.2101 11.3728C23.693 12.6878 23.9569 14.1105 23.9569 15.5957C23.9569 19.4233 22.2042 22.8366 19.4667 25.0583C19.3168 25.18 19.2693 25.3917 19.3583 25.5641L21.1617 29.0572C21.4356 29.5877 21.0554 30.223 20.4639 30.223H3.49294C2.90151 30.223 2.52124 29.5877 2.79514 29.0572L4.59856 25.5641C4.68757 25.3917 4.64009 25.18 4.49015 25.0583C1.7527 22.8366 0 19.4233 0 15.5957C0 8.90032 5.36293 3.47266 11.9784 3.47266C13.4277 3.47266 14.8168 3.73314 16.1026 4.21036L15.6457 6.47279C14.514 6.00631 13.2759 5.74928 11.9784 5.74928C6.60528 5.74928 2.24947 10.1577 2.24947 15.5957C2.24947 18.8014 3.76073 21.6491 6.11095 23.4507L7.09672 24.2064C7.40314 24.4413 7.49717 24.8658 7.31915 25.2106L6.20764 27.3635C6.07069 27.6287 6.26082 27.9464 6.55654 27.9464H17.4003C17.6961 27.9464 17.8862 27.6287 17.7492 27.3635L16.6377 25.2106C16.4597 24.8658 16.5537 24.4413 16.8602 24.2064L17.8459 23.4507C20.1962 21.6491 21.7074 18.8014 21.7074 15.5957C21.7074 14.264 21.4462 12.9941 20.9728 11.8356L23.2101 11.3728Z" fill="currentColor"/></svg>
