<svg viewBox="0 0 214 308" xmlns="http://www.w3.org/2000/svg" role="img" aria-label="Siket"><path d="M 148 2.259 C 146.625 2.877 141.774 5.546 137.219 8.191 C 132.665 10.836 128.789 13 128.606 13 C 128.424 13 117.801 19.075 105 26.500 C 92.199 33.925 81.610 40 81.468 40 C 80.359 40 47.366 60.030 43.233 63.213 C 27.341 75.452 15.669 94.181 11.458 114.200 C 9.575 123.149 9.592 139.931 11.493 148.965 C 13.896 160.390 17.902 169.196 30.845 191.500 C 37.548 203.050 43.420 213.134 43.895 213.909 C 44.580 215.029 47.750 213.595 59.363 206.909 C 67.397 202.284 73.976 197.870 73.985 197.100 C 73.993 196.330 72.142 192.505 69.872 188.600 C 45.067 145.934 45.663 147.310 45.575 132.500 C 45.501 120.060 46.972 114.305 52.642 104.843 C 58.226 95.525 65.769 89.573 87.929 77 C 99.077 70.675 109.841 64.542 111.849 63.371 C 113.857 62.201 118.200 59.688 121.500 57.787 C 173.001 28.125 179.806 24.123 180.414 23.140 C 181.039 22.129 174.622 11.373 171.158 7.624 C 165.794 1.819 154.698 -0.751 148 2.259 M 181 34.303 C 175.775 37.220 160.700 45.829 147.500 53.434 C 65.605 100.617 65.051 100.979 59.705 110.801 C 56.359 116.948 53.993 125.973 54.026 132.460 C 54.066 140.272 57.654 149.035 68.373 167.500 C 73.801 176.850 79.341 186.429 80.685 188.787 L 83.128 193.074 88.814 189.855 C 91.941 188.085 95.992 185.518 97.816 184.150 C 105.698 178.237 107.555 166.489 102.346 155.500 C 99.956 150.458 99.501 148.220 99.501 141.479 C 99.500 134.420 99.897 132.652 102.809 126.736 C 106.844 118.541 109.913 115.878 126.010 106.604 C 132.880 102.646 153.310 90.904 171.411 80.510 C 189.511 70.116 205.758 60.176 207.513 58.420 C 215.572 50.362 213.222 36.215 202.956 30.977 C 196.346 27.606 191.751 28.302 181 34.303 M 157.500 99.113 C 152 102.389 145.588 106.043 143.250 107.234 C 140.912 108.424 139 109.949 139 110.623 C 139 111.296 144.467 121.200 151.149 132.631 C 165.633 157.411 167.179 161.268 167.775 174.113 C 168.712 194.279 159.972 210.121 141.729 221.323 C 137.753 223.765 114.700 237.130 90.500 251.024 C 66.300 264.917 43.462 278.040 39.750 280.186 C 36.038 282.332 33 284.588 33 285.198 C 33 287.535 40.146 298.946 43.249 301.561 C 49.658 306.966 58.336 308.558 65.368 305.620 C 73.444 302.245 165.099 248.896 171.003 244.133 C 176.743 239.503 184.805 230.787 188.703 225 C 206.475 198.613 208.450 165.453 193.944 137 C 187.940 125.222 169.471 93.649 168.435 93.389 C 167.921 93.261 163 95.836 157.500 99.113 M 121.079 120.102 C 114.071 124.450 112.998 125.537 109.835 131.490 C 106.812 137.178 107.079 143.993 110.619 151.500 C 114.522 159.778 115.061 170.141 112.010 178.264 C 108.355 187.997 103.199 192.373 79 206.284 C 2.463 250.280 5.428 248.425 2.411 254.200 C 0.159 258.510 0.631 265.695 3.486 270.566 C 7.552 277.505 17.074 280.824 24.651 277.943 C 26.181 277.361 31.498 274.481 36.466 271.542 C 44.090 267.033 82.500 244.806 94 238.248 C 130.398 217.493 142.109 210.329 146.157 206.344 C 157.509 195.167 161.949 177.885 157.093 163.770 C 154.184 155.314 131.153 115.988 129.152 116.059 C 128.243 116.091 124.610 117.910 121.079 120.102" fill="#88c0d0" fill-rule="evenodd"/></svg>
