<svg xmlns="http://www.w3.org/2000/svg" viewBox="0 0 984.7 175.5"><title>Hymer</title><path fill="currentColor" d="M791.5,141.9h-88.4c-1.8,0-2.7-1-2.7-3.1v-32.1c0-1.9,1.1-2.9,3.4-2.9h67.3c1.4,0,2.4.1,3-.5s.8-1.9.8-2.9v-30c0-2.6-1.4-3.9-4.1-3.9h-66.8c-2.4,0-3.6-1.4-3.6-4.1v-25.2c0-2.6,1.5-3.9,4.6-3.9h82.9c3.4,0,5.1-1.7,5.1-5.1l.2-24.1c0-2.7-1.2-4.1-3.6-4.1h-127.5c-2.6,0-3.9,1.5-3.9,4.6v165.4c0,3.4,1.8,5.1,5.3,5.1h127.5c1.8,0,3-.4,3.7-1.2s1.1-1.8,1.1-3.1v-25.4c0-2.4-1.4-3.6-4.3-3.6v.1ZM951.9,106.6c-.8-1.9-.5-3.1,1-3.6,5.9-2.1,11.4-5.3,16.4-9.5,5-4.3,9-9.6,12-16s3.4-19.9,3.4-28.1c0-15.7-6-27.9-17.9-36.4-12-8.5-25.1-12.8-46.6-12.8h-75c-2.6,0-3.9,1.5-3.9,4.6v165.6c0,1.6.4,2.8,1.1,3.6s2,1.2,4,1.2h30.6c4.3,0,6.5-1.9,6.5-5.8V38.1c0-2.7,1.5-4.1,4.6-4.1h25.8c8.2,0,14.8,2,19.8,6s7.5,9,7.5,16.9-2.5,14.7-7.3,18.6c-6.1,4.9-9.5,7.2-9.8,7.4-18.9,10.6-17.7,11.5-12.3,25.4.2.4,26.6,62.6,26.6,62.6.8,2.9,2.6,4.3,5.3,4.3h35.4c1.6,0,2.8-.6,3.5-1.9.7-1.3.8-2.8.1-4.6l-30.6-62.1h-.2ZM145.8.3h-34.4c-2.4,0-3.6,1.4-3.6,4.3v58.2c0,2.6-1.3,3.9-3.9,3.9h-58.1c-2.4,0-3.6-1.4-3.6-4.1V4.6c0-2.9-1.3-4.3-3.9-4.3H3.9C1.3.3,0,1.8,0,4.9v165.4c0,1.8.4,3.1,1.1,3.9.7.8,2.1,1.2,4.2,1.2h30.4c4.3,0,6.5-1.8,6.5-5.5v-60.3c0-2.1,1-3.1,3.1-3.1h59.1c2.2,0,3.4,1,3.4,3.1v60.3c0,3.7,2.1,5.5,6.3,5.5h30.6c2.1,0,3.5-.4,4.2-1.2s1.1-2.1,1.1-3.9V4.9c0-3-1.4-4.6-4.1-4.6h-.1ZM596.4.3h-59.5c-1.8,0-3,.2-3.9.7-.8.5-1.4,1.4-1.9,2.9l-32.7,100.9c-.5,1.4-1,2-1.7,2s-1.2-.6-1.7-2L462.3,3.9c-.5-1.4-1.1-2.4-1.9-2.9-.8-.5-2.1-.7-3.9-.7h-55.7c-6.4,0-7.9,3.4-7.9,9.9v159.6c0,3.7,1.7,5.5,5.1,5.5h34.2c1.8,0,2.9-.3,3.5-1,.6-.6.8-1.8.8-3.4V56.3c0-1.3.3-2,.8-2.2.6-.2,1.1.5,1.6,1.9l38,115.3c.8,2.6,2.6,3.9,5.3,3.9h28.9c2.7,0,4.5-1.3,5.3-3.9l38-115.3c.5-1.4,1-2.1,1.6-1.9s.8.9.8,2.2v114.6c0,1.6.3,2.7.8,3.4.6.6,1.7,1,3.5,1h34.2c3.4,0,5.1-1.8,5.1-5.5V4.9c0-3-1.4-4.6-4.1-4.6h.1ZM350.2.3h-36.1c-2.1,0-3.5.3-4.3,1-.8.6-1.7,1.8-2.7,3.4l-35,73c-.2.3-.5.3-.7,0L236.4,4.7c-1-1.6-1.8-2.7-2.7-3.4-.8-.6-2.2-1-4.3-1h-36.1c-2.1,0-3.5.5-4.1,1.6-.6,1-.5,2.4.5,4l58.3,110.5c1,1.4,1.7,2.7,2.2,3.9.5,1.1.7,2.8.7,5.1v45c0,1.8.4,3.1,1.1,3.9.7.8,2.1,1.2,4.2,1.2h31.2c2.1,0,3.5-.4,4.2-1.2s1.1-2.1,1.1-3.9v-45c0-2.2.2-3.9.7-5.1.5-1.1,1.2-2.4,2.2-3.9L353.9,5.9c1-1.6,1.1-2.9.5-4-.6-1-2-1.6-4.1-1.6h-.1Z"/></svg>
