<svg xmlns="http://www.w3.org/2000/svg" viewBox="0 0 384 384" fill="none"><title>GuidenAI</title><path fill="#ff751f" d="M 351.628906 137.355469 L 246.488281 32.21875 C 216.3125 2.042969 167.382812 2.042969 137.199219 32.21875 L 32.066406 137.355469 C 1.890625 167.53125 1.890625 216.457031 32.066406 246.644531 L 137.203125 351.78125 C 167.382812 381.957031 216.3125 381.957031 246.496094 351.78125 L 351.632812 246.644531 C 381.804688 216.457031 381.804688 167.53125 351.628906 137.355469 Z M 259.125 186.121094 C 259.125 199.203125 255.445312 208.796875 250.769531 218.507812 C 242.824219 235.003906 200.261719 279.660156 199.96875 279.984375 C 197.867188 282.046875 195.042969 283.203125 192.101562 283.203125 C 189.160156 283.203125 186.335938 282.046875 184.234375 279.984375 C 183.78125 279.449219 144.050781 234.148438 135.414062 215.996094 C 129.679688 203.960938 124.578125 190.433594 124.578125 173.835938 C 124.578125 127.515625 155.234375 100.78125 194.179688 100.78125 C 227.097656 100.78125 252.625 119.652344 257.375 146.800781 C 257.417969 147.070312 257.402344 147.34375 257.328125 147.605469 C 257.253906 147.871094 257.125 148.113281 256.945312 148.316406 C 256.765625 148.523438 256.546875 148.6875 256.296875 148.800781 C 256.046875 148.910156 255.777344 148.964844 255.503906 148.960938 L 224.414062 148.960938 C 223.9375 148.96875 223.476562 148.828125 223.085938 148.558594 C 222.699219 148.289062 222.402344 147.90625 222.242188 147.457031 C 218.507812 136.519531 208.832031 130.066406 195 130.160156 C 173.457031 130.0625 159.792969 145.929688 159.792969 173.449219 C 159.792969 201.25 173.566406 217.578125 195.984375 217.703125 C 208.992188 217.585938 220.785156 211.726562 222.464844 200.488281 C 222.601562 199.972656 222.886719 199.511719 223.285156 199.160156 C 223.683594 198.808594 224.183594 198.585938 224.710938 198.519531 L 255.519531 198.519531 C 255.832031 198.515625 256.140625 198.582031 256.425781 198.71875 C 256.707031 198.851562 256.957031 199.046875 257.15625 199.292969 C 257.351562 199.535156 257.488281 199.820312 257.5625 200.121094 C 257.632812 200.421875 257.640625 200.738281 257.578125 201.042969 Z M 259.125 186.121094 " fill-rule="nonzero"/></svg>
