<svg width="98" height="29" viewBox="0 0 98 29" fill="none" xmlns="http://www.w3.org/2000/svg"><path d="M21.3437 4.1562C18.9827 1.79763 15.8424 0.5 12.5015 0.5C9.16056 0.5 6.02027 1.79763 3.66091 4.15455C1.29989 6.51147 0 9.64465 0 12.9798C0 16.3149 1.29989 19.448 3.66091 21.805C6.02193 24.1619 9.16222 25.4612 12.5031 25.4612C15.844 25.4612 18.9843 24.1635 21.3454 21.8066C23.7064 19.4497 25.0063 16.3165 25.0063 12.9814C25.0063 9.6463 23.7064 6.51312 21.3454 4.1562H21.3437ZM22.3949 12.9814C22.3949 17.927 18.7074 22.1227 13.8063 22.7699V3.1896C18.7074 3.83676 22.3949 8.0342 22.3949 12.9798V12.9814ZM4.8265 6.75643C6.43312 4.7835 8.68803 3.52063 11.1983 3.1896V6.75643H4.8265ZM11.1983 9.36162V11.6904H2.69428C2.79874 10.8926 3.00267 10.1097 3.2978 9.36162H11.1983ZM11.1983 14.2939V16.6227H3.30775C3.00931 15.8746 2.80371 15.0917 2.6976 14.2939H11.1983ZM11.1983 19.2279V22.7699C8.70129 22.4405 6.45302 21.1859 4.84805 19.2279H11.1983Z" fill="#5B0EFF"/></svg>
