<svg width="36" height="36" viewBox="0 0 36 36" fill="none" xmlns="http://www.w3.org/2000/svg">
<g clip-path="url(#clip0_8072_472)">
<path d="M28.295 12.3848V30.4345C27.7497 30.087 27.2044 29.7358 26.6554 29.3883C26.498 29.2895 26.337 29.1871 26.1613 29.1359C25.982 29.0847 25.777 29.0883 25.6196 29.1871C25.4952 29.2676 25.411 29.3993 25.3488 29.5346C25.3012 29.6297 25.261 29.7248 25.2207 29.8236C24.9791 30.676 24.4631 31.4113 23.7787 31.9381C23.7567 31.9527 23.7348 31.971 23.7128 31.9856C23.5774 32.0881 23.4346 32.1832 23.2846 32.2637C23.2809 32.2637 23.2736 32.2746 23.2663 32.2783C23.2663 32.2783 23.2626 32.2783 23.259 32.2819C23.1199 32.3551 22.9771 32.4246 22.8271 32.4831C22.7941 32.4978 22.7612 32.5088 22.7283 32.5197C22.6148 32.5636 22.494 32.6039 22.3733 32.6368C22.333 32.6478 22.2891 32.6587 22.2488 32.6697C22.1317 32.6953 22.0109 32.7173 21.8901 32.7356C21.8499 32.7429 21.8096 32.7502 21.7694 32.7539C21.612 32.7721 21.4546 32.7831 21.2936 32.7831H4.02594C1.80069 32.7831 0 30.9833 0 28.7591V8.36078H13.5894C13.7504 8.36078 13.9078 8.37175 14.0652 8.39004C14.1054 8.3937 14.1457 8.40102 14.1896 8.40834C14.3067 8.42663 14.4275 8.44858 14.5446 8.47784C14.5849 8.48516 14.6288 8.49613 14.6727 8.51077C14.7898 8.54369 14.9106 8.58027 15.0241 8.62417C15.057 8.63515 15.0936 8.64612 15.1266 8.66075C15.273 8.71929 15.4194 8.78879 15.5548 8.86561H15.5621C15.5621 8.86561 15.5767 8.87659 15.5841 8.88025C15.7305 8.96439 15.8732 9.05584 16.0086 9.15827C16.0306 9.17291 16.0525 9.1912 16.0745 9.20949C16.7626 9.73261 17.2749 10.4679 17.5202 11.3203C17.5568 11.4191 17.597 11.5142 17.6446 11.6093C17.7105 11.7446 17.791 11.8763 17.9191 11.9568C18.0728 12.0556 18.2778 12.0592 18.4571 12.008C18.6328 11.9568 18.7938 11.8544 18.9512 11.7556C19.7601 11.2398 20.5689 10.724 21.3741 10.2082C21.3814 10.2045 21.3851 10.2009 21.3887 10.1972L21.4143 10.1826C21.4143 10.1826 21.4217 10.1826 21.4253 10.1753C21.5022 10.1277 21.579 10.0765 21.6596 10.0253H21.6669C21.7145 9.98869 21.762 9.95943 21.8133 9.9265C22.0914 9.74725 22.3733 9.57165 22.6587 9.38874C23.9653 8.55467 25.5464 8.66075 26.6993 9.41435C27.5631 9.97772 28.1852 10.8959 28.2804 12.0519C28.2877 12.1617 28.295 12.2714 28.295 12.3848Z" fill="#6D4AFF"/>
<path d="M28.295 12.3848V30.4345C27.7497 30.087 27.2044 29.7358 26.6554 29.3883C26.498 29.2895 26.337 29.1871 26.1613 29.1359C25.982 29.0847 25.777 29.0883 25.6196 29.1871C25.4952 29.2676 25.411 29.3993 25.3488 29.5346C25.3012 29.6297 25.261 29.7248 25.2207 29.8236C24.9791 30.676 24.4631 31.4113 23.7787 31.9381C23.7567 31.9527 23.7348 31.971 23.7128 31.9856C23.5774 32.0881 23.4346 32.1832 23.2846 32.2637C23.2809 32.2637 23.2736 32.2746 23.2663 32.2783C23.2663 32.2783 23.2626 32.2783 23.259 32.2819C23.1199 32.3551 22.9771 32.4246 22.8271 32.4831C22.7941 32.4978 22.7612 32.5088 22.7283 32.5197C22.6148 32.5636 22.494 32.6039 22.3733 32.6368C22.333 32.6478 22.2891 32.6587 22.2488 32.6697C22.1317 32.6953 22.0109 32.7173 21.8901 32.7356C21.8499 32.7429 21.8096 32.7502 21.7694 32.7539C21.612 32.7721 21.4546 32.7831 21.2936 32.7831H4.02594C1.80069 32.7831 0 30.9833 0 28.7591V8.36078H13.5894C13.7504 8.36078 13.9078 8.37175 14.0652 8.39004C14.1054 8.3937 14.1457 8.40102 14.1896 8.40834C14.3067 8.42663 14.4275 8.44858 14.5446 8.47784C14.5849 8.48516 14.6288 8.49613 14.6727 8.51077C14.7898 8.54369 14.9106 8.58027 15.0241 8.62417C15.057 8.63515 15.0936 8.64612 15.1266 8.66075C15.273 8.71929 15.4194 8.78879 15.5548 8.86561H15.5621C15.5621 8.86561 15.5767 8.87659 15.5841 8.88025C15.7305 8.96439 15.8732 9.05584 16.0086 9.15827C16.0306 9.17291 16.0525 9.1912 16.0745 9.20949C16.7626 9.73261 17.2749 10.4679 17.5202 11.3203C17.5568 11.4191 17.597 11.5142 17.6446 11.6093C17.7105 11.7446 17.791 11.8763 17.9191 11.9568C18.0728 12.0556 18.2778 12.0592 18.4571 12.008C18.6328 11.9568 18.7938 11.8544 18.9512 11.7556C19.7601 11.2398 20.5689 10.724 21.3741 10.2082C21.3814 10.2045 21.3851 10.2009 21.3887 10.1972L21.4143 10.1826C21.4143 10.1826 21.4217 10.1826 21.4253 10.1753C21.5022 10.1277 21.579 10.0765 21.6596 10.0253H21.6669C21.7145 9.98869 21.762 9.95943 21.8133 9.9265C22.0914 9.74725 22.3733 9.57165 22.6587 9.38874C23.9653 8.55467 25.5464 8.66075 26.6993 9.41435C27.5631 9.97772 28.1852 10.8959 28.2804 12.0519C28.2877 12.1617 28.295 12.2714 28.295 12.3848Z" fill="url(#paint0_radial_8072_472)"/>
<path d="M28.295 12.3848V30.4345C27.7497 30.087 27.2044 29.7358 26.6554 29.3883C26.498 29.2895 26.337 29.1871 26.1613 29.1359C25.982 29.0847 25.777 29.0883 25.6196 29.1871C25.4952 29.2676 25.411 29.3993 25.3488 29.5346C25.3012 29.6297 25.261 29.7248 25.2207 29.8236C24.9791 30.676 24.4631 31.4113 23.7787 31.9381C23.7567 31.9527 23.7348 31.971 23.7128 31.9856C23.5774 32.0881 23.4346 32.1832 23.2846 32.2637C23.2809 32.2637 23.2736 32.2746 23.2663 32.2783C23.2663 32.2783 23.2626 32.2783 23.259 32.2819C23.1199 32.3551 22.9771 32.4246 22.8271 32.4831C22.7941 32.4978 22.7612 32.5088 22.7283 32.5197C22.6148 32.5636 22.494 32.6039 22.3733 32.6368C22.333 32.6478 22.2891 32.6587 22.2488 32.6697C22.1317 32.6953 22.0109 32.7173 21.8901 32.7356C21.8499 32.7429 21.8096 32.7502 21.7694 32.7539C21.612 32.7721 21.4546 32.7831 21.2936 32.7831H4.02594C1.80069 32.7831 0 30.9833 0 28.7591V8.36078H13.5894C13.7504 8.36078 13.9078 8.37175 14.0652 8.39004C14.1054 8.3937 14.1457 8.40102 14.1896 8.40834C14.3067 8.42663 14.4275 8.44858 14.5446 8.47784C14.5849 8.48516 14.6288 8.49613 14.6727 8.51077C14.7898 8.54369 14.9106 8.58027 15.0241 8.62417C15.057 8.63515 15.0936 8.64612 15.1266 8.66075C15.273 8.71929 15.4194 8.78879 15.5548 8.86561H15.5621C15.5621 8.86561 15.5767 8.87659 15.5841 8.88025C15.7305 8.96439 15.8732 9.05584 16.0086 9.15827C16.0306 9.17291 16.0525 9.1912 16.0745 9.20949C16.7626 9.73261 17.2749 10.4679 17.5202 11.3203C17.5568 11.4191 17.597 11.5142 17.6446 11.6093C17.7105 11.7446 17.791 11.8763 17.9191 11.9568C18.0728 12.0556 18.2778 12.0592 18.4571 12.008C18.6328 11.9568 18.7938 11.8544 18.9512 11.7556C19.7601 11.2398 20.5689 10.724 21.3741 10.2082C21.3814 10.2045 21.3851 10.2009 21.3887 10.1972L21.4143 10.1826C21.4143 10.1826 21.4217 10.1826 21.4253 10.1753C21.5022 10.1277 21.579 10.0765 21.6596 10.0253H21.6669C21.7145 9.98869 21.762 9.95943 21.8133 9.9265C22.0914 9.74725 22.3733 9.57165 22.6587 9.38874C23.9653 8.55467 25.5464 8.66075 26.6993 9.41435C27.5631 9.97772 28.1852 10.8959 28.2804 12.0519C28.2877 12.1617 28.295 12.2714 28.295 12.3848Z" fill="#1B1340" fill-opacity="0.1"/>
<path d="M28.295 12.3848V30.4345C27.7497 30.087 27.2044 29.7358 26.6554 29.3883C26.498 29.2895 26.337 29.1871 26.1613 29.1359C25.982 29.0847 25.777 29.0883 25.6196 29.1871C25.4952 29.2676 25.411 29.3993 25.3488 29.5346C25.3012 29.6297 25.261 29.7248 25.2207 29.8236C24.9791 30.676 24.4631 31.4113 23.7787 31.9381C23.7567 31.9527 23.7348 31.971 23.7128 31.9856C23.5774 32.0881 23.4346 32.1832 23.2846 32.2637C23.2809 32.2637 23.2736 32.2746 23.2663 32.2783C23.2663 32.2783 23.2626 32.2783 23.259 32.2819C23.1199 32.3551 22.9771 32.4246 22.8271 32.4831C22.7941 32.4978 22.7612 32.5088 22.7283 32.5197C22.6148 32.5636 22.494 32.6039 22.3733 32.6368C22.333 32.6478 22.2891 32.6587 22.2488 32.6697C22.1317 32.6953 22.0109 32.7173 21.8901 32.7356C21.8499 32.7429 21.8096 32.7502 21.7694 32.7539C21.612 32.7721 21.4546 32.7831 21.2936 32.7831H4.02594C1.80069 32.7831 0 30.9833 0 28.7591V8.36078H13.5894C13.7504 8.36078 13.9078 8.37175 14.0652 8.39004C14.1054 8.3937 14.1457 8.40102 14.1896 8.40834C14.3067 8.42663 14.4275 8.44858 14.5446 8.47784C14.5849 8.48516 14.6288 8.49613 14.6727 8.51077C14.7898 8.54369 14.9106 8.58027 15.0241 8.62417C15.057 8.63515 15.0936 8.64612 15.1266 8.66075C15.273 8.71929 15.4194 8.78879 15.5548 8.86561H15.5621C15.5621 8.86561 15.5767 8.87659 15.5841 8.88025C15.7305 8.96439 15.8732 9.05584 16.0086 9.15827C16.0306 9.17291 16.0525 9.1912 16.0745 9.20949C16.7626 9.73261 17.2749 10.4679 17.5202 11.3203C17.5568 11.4191 17.597 11.5142 17.6446 11.6093C17.7105 11.7446 17.791 11.8763 17.9191 11.9568C18.0728 12.0556 18.2778 12.0592 18.4571 12.008C18.6328 11.9568 18.7938 11.8544 18.9512 11.7556C19.7601 11.2398 20.5689 10.724 21.3741 10.2082C21.3814 10.2045 21.3851 10.2009 21.3887 10.1972L21.4143 10.1826C21.4143 10.1826 21.4217 10.1826 21.4253 10.1753C21.5022 10.1277 21.579 10.0765 21.6596 10.0253H21.6669C21.7145 9.98869 21.762 9.95943 21.8133 9.9265C22.0914 9.74725 22.3733 9.57165 22.6587 9.38874C23.9653 8.55467 25.5464 8.66075 26.6993 9.41435C27.5631 9.97772 28.1852 10.8959 28.2804 12.0519C28.2877 12.1617 28.295 12.2714 28.295 12.3848Z" fill="url(#paint1_radial_8072_472)"/>
<path d="M35.9999 7.2428V28.7605C35.9999 28.8739 35.9926 28.9837 35.9853 29.0934C35.762 31.7932 32.6437 33.2162 30.3636 31.7566L29.0936 30.9481C29.0936 30.9481 29.0863 30.9408 29.079 30.9372C28.8191 30.7689 28.5556 30.6043 28.2957 30.436V12.3863C28.2957 12.2729 28.2884 12.1631 28.2811 12.0534C28.1859 10.8974 27.5637 9.97916 26.7 9.41579C25.5471 8.66219 23.966 8.55611 22.6594 9.39018C22.3739 9.57309 22.0921 9.74869 21.814 9.92794L29.079 5.06616L29.0936 5.05884L29.1888 4.99665C29.2986 4.92714 29.4084 4.85764 29.5182 4.78813C29.7963 4.60888 30.0781 4.42962 30.3636 4.24671C32.6437 2.79074 35.762 4.21013 35.9853 6.9099C35.9926 7.01965 35.9999 7.1294 35.9999 7.2428Z" fill="url(#paint2_linear_8072_472)"/>
<path d="M29.078 5.06652L21.813 9.92831C21.7618 9.96123 21.7142 9.9905 21.6666 10.0234H21.6593C21.5788 10.0783 21.5019 10.1295 21.4251 10.1771C21.4214 10.1807 21.4178 10.1807 21.4141 10.1844L21.3885 10.199C21.3885 10.199 21.3812 10.2063 21.3738 10.21C20.5687 10.7258 19.7598 11.2416 18.951 11.7574C18.7936 11.8562 18.6325 11.9586 18.4569 12.0098C18.2775 12.0611 18.0726 12.0574 17.9189 11.9586C17.7908 11.8781 17.7102 11.7465 17.6444 11.6111C17.5968 11.516 17.5565 11.4209 17.5199 11.3221C17.2747 10.4697 16.7623 9.73442 16.0742 9.2113C16.0523 9.19301 16.0303 9.17471 16.0084 9.16008C15.8729 9.05765 15.7302 8.9662 15.5838 8.88206C15.5765 8.88206 15.5692 8.87108 15.5619 8.86742H15.5545C15.4191 8.7906 15.2727 8.72109 15.1263 8.66256C15.0934 8.64793 15.0568 8.63695 15.0238 8.62598C14.9104 8.58208 14.7896 8.5455 14.6725 8.51258C14.6286 8.49794 14.5846 8.48697 14.5444 8.47965C14.4273 8.45039 14.3065 8.42844 14.1894 8.41014C14.1455 8.40283 14.1052 8.39551 14.0649 8.39185C13.9076 8.37356 13.7502 8.36259 13.5891 8.36259H-0.000244141V7.24317C-0.000244141 5.02262 1.80045 3.21912 4.0257 3.21912H21.2933C21.4544 3.21912 21.6117 3.23009 21.7691 3.24838C21.8094 3.2557 21.8496 3.26301 21.8899 3.26667C22.0107 3.28496 22.1315 3.30691 22.2486 3.33618C22.2888 3.34715 22.3328 3.35813 22.373 3.3691C22.4938 3.40203 22.6146 3.44227 22.728 3.48251C22.761 3.49714 22.7939 3.50812 22.8268 3.51909C22.9769 3.58128 23.1196 3.64713 23.2587 3.72395C23.2624 3.72395 23.266 3.72761 23.266 3.72761C23.2734 3.73127 23.2807 3.73493 23.2843 3.73858C23.4344 3.82272 23.5771 3.91784 23.7126 4.01661C23.7345 4.0349 23.7565 4.04953 23.7784 4.06783C24.4628 4.59461 24.9789 5.32992 25.2205 6.17862C25.2607 6.2774 25.301 6.37617 25.3485 6.46762C25.4108 6.60298 25.4949 6.73468 25.6194 6.81516C25.7768 6.91759 25.9817 6.92125 26.1611 6.86637C26.3367 6.81516 26.4978 6.71638 26.6551 6.61395C27.464 6.1018 28.2692 5.58233 29.078 5.06652Z" fill="url(#paint3_linear_8072_472)"/>
</g>
<defs>
<radialGradient id="paint0_radial_8072_472" cx="0" cy="0" r="1" gradientTransform="matrix(12.2235 -21.2711 26.1185 19.9616 5.15167 32.1555)" gradientUnits="userSpaceOnUse">
<stop stop-color="#B8C6E5"/>
<stop offset="0.418768" stop-color="#9388F2"/>
<stop offset="0.716275" stop-color="#6D4AFF"/>
</radialGradient>
<radialGradient id="paint1_radial_8072_472" cx="0" cy="0" r="1" gradientTransform="matrix(25.683 -24.9558 28.6578 38.4869 -2.26358 35.6184)" gradientUnits="userSpaceOnUse">
<stop stop-color="#82F8E1"/>
<stop offset="1" stop-color="#6E45E2"/>
</radialGradient>
<linearGradient id="paint2_linear_8072_472" x1="22" y1="26.5" x2="36" y2="30.5" gradientUnits="userSpaceOnUse">
<stop stop-color="#A186EC"/>
<stop offset="1" stop-color="#93E6E2"/>
</linearGradient>
<linearGradient id="paint3_linear_8072_472" x1="8" y1="-4.24992e-08" x2="12.5" y2="22" gradientUnits="userSpaceOnUse">
<stop offset="0.118788" stop-color="#9997E7"/>
<stop offset="0.561315" stop-color="#89D4DE"/>
</linearGradient>
<clipPath id="clip0_8072_472">
<rect width="36" height="36" fill="white"/>
</clipPath>
</defs>
</svg>